<svg xmlns="http://www.w3.org/2000/svg" height="853.333" width="677">
	<path
		d="M261.333.667L247.667 10 247 269.333v14.334l-.333 16.666-.334 10.334-1 11.333-1 12.667-1.666 13.666-2 14.334L238.333 378l-3 15.667L231.667 410l-4.334 17-5 17-6 17.333L210 479l-3.667 8.667-4 9-4 8.666L194 514l-4.667 8.667-4.666 8.666-5.334 8.334L174 548l-5.667 8.333-5.666 8.334-6.334 8-6.333 8-7 7.666-7 7.667-7.333 7.333-7.667 7.334-8.333 7-8.334 6.666L95.667 631l-9 6L77 643l-9.667 6L57 654.333l-10.333 5-11 5-11.334 4.334L12.667 673l-12 3.667L5 689.333l7.667-1.666 8-2.334L29 682.667l8.667-3.334 8.666-4 9-4 9-5 9-5 9.334-5.666L92 649.333l9.333-6.666 9-7 9.334-7.667 9.333-8 9-8.667 9-9 9-9.666 8.667-10L173 572.333l8-11 8-11.666L196.667 538 204 525.333l6.667-13L217.333 499l6-13.667L229 470.667 234 456l4.667-15.333 4-16L246 408.333l3-16.666-.333 87 1.666 3.666 2.334 3.667 2.666 4 3 3.667 3.667 3.666 3.667 4 4 4 4.666 4 10 8 11.334 8 12 8.334 13.333 8L335 550l15 8.333 15.333 8 16 8.334 16.334 8 17 8 16.666 7.666 17 7.334L482 620.333l32.667 13.334 30.666 12 28 10.333 24.334 8.667L617 671.333l14 4.334 4.667 1.333 3 .667 2-5.334L643 665l-19.667-6.333-22.666-8-25.667-9L547 631l-29.333-11.333-30.334-12.334-30.666-13L426.333 581l-29.666-14-14.334-7-14-7L355 546l-12.667-7L330 532.333l-11.667-7-10.666-6.666L298 512l-9-6.333-7.667-6.334-7-6.333-5.666-6-2.334-3-2-2.667-1.666-2.666-1.334-3v-475z"/>
	<path
		d="M559 569l-8.333-4.667L542 559l-9-6-9.333-6.333-10-6.667-9.667-7.667-10.333-8-10.334-8.666-10.333-9-10.333-10-10.334-10.334-10.666-11-10.334-11.666-10-12.334-10-13-10-13.666L392 410.333l-9.333-15-9-15.666-8.334-16.334-8-17.333-7.666-17.667-3.334-9.333-3.333-9.333-3.333-9.667-3-9.667-3-10-3-10.333-2.334-10.333-2.666-10.334-2.334-10.666-2-11-1.666-11L318 205.333l-1.667-11.666-1-11.667L314 170l-.667-12-.666-12.333-.334-12.667v-25.667L308.667 110l-4 2.333-4 2.667L300 496.333l13 8.334V245l3 16.333 3.333 16L323.667 293l4.666 15.667L333.667 324l6 15 6.666 14.667 7 14.666L361 382.667l8 13.666L377.333 410l9 13.333 9 13L404.667 449l9.666 12 10 12 10.334 11.333 10.333 11 10.333 10.334 10.667 10 10.667 9.666 10.666 9L498 543l10.667 8 10.666 7.667 10.667 7L540.333 572l10.334 6 10 5.333 9.666 4.667 9.667 4 9.333 3.667 15 5.333 16.334 5.667L642 613l30.333 8.667 1.667-5.334 2-6L651.333 603 637 599l-15-4.667L606.333 589l-16-6-8-3-8-3.667-7.666-3.333-7.667-4zM286.667 739.333L276 738l-10.667-2L255 733.667l-10-3L235 727l-9.667-4-9.666-4.333-9.334-5 21.334-18 7 3.333 7 3 7.333 3 7.667 2.333 7.666 2.334 7.667 1.666 7.667 1.667 8 1.333-1 25zM472.667 629.333l-6.667 9-6.667 8.334L452 655l-7.667 7.667-8 7.333-8.666 6.667L419 683l-9.333 6-9.334 5.333-10 4.667-10 4.333L370 707l-10.667 3-10.666 2.333-11 2-11.334 1-.666 24.667 6.666-.333L339 739l13-2 12.667-2.667L377.333 731l12-4 12-5L413 716.667l11-6L435 704l10.333-7.333 10-8 9.667-8.334 9-9 8.333-9.666 8-10L498 641l-25.333-11.667z"/>
	<path
		d="M432.667 350.333l8.666 7 8 7.667 8 8 7.334 8.333 6.666 9 6.334 9.334 6 9.666 5.333 10 4.667 10.334 4 10.666 3.666 11 3 11.334 2 11.666 1.334 12 1 12V515l2.333 2.667 3.333 3 9 7.333 12 8.667.667-7.334.333-7.333.334-7.667V507l-1-14-1.334-13.333-2-13.334-3-12.666L526 441.333l-4-12-4.667-12L512 406l-5.667-10.667-6.666-10.666-6.667-10-7.667-9.667-7.666-9.333-8.667-9-8.667-8.334-9.333-8-18.333 20zM117.333 480l-.666 7.667V511l.333 9.667.667 10 1.333 9.666 1.667 10 2 9.334 2 8.666 2 7.667 2.333 7-3 3.333-3.667 3-7 6-7.666 6-4.334-11L99.667 579l-3-11.667L94 555.667l-1.667-12-1.333-12-.667-12.334V507l.334-8.333.333-8 .667-8 1-8L116 480z"/>
	<path
		d="M117.333 480l-.666 7.667V511l.333 9.667.667 10 1.333 9.666 1.667 10 2 9.334 2 8.666 2 7.667 2.333 7-3 3.333-3.667 3-7 6-7.666 6-4.334-11L99.667 579l-3-11.667L94 555.667l-1.667-12-1.333-12-.667-12.334V507l.334-8.333.333-8 .667-8 1-8L116 480"
		fill="none"/>
	<path
		d="M313 551.333L313.333 852l-13.333.333L301.333 592l-.333.333-1.333 2.334-2.667 4.666-4 6.667-6 8.333-7.333 10.334-9 11.333-11.334 12.667-6 7-7 7L239 670l-8 7.333-8.333 7.667-9 7.667-9.667 8-10.333 8-11 8-11.667 8-12 8L146 741l-13.667 8-14 8-15 8.333L87.667 773l-3.334-5.667-2.666-6 16.666-8.666 16-8.667 15-8.667 14.334-8.666L157 718l12.667-9 12-8.667L193 692l10.667-8.667 9.666-8.333 9.334-8.333 8.666-8 8-8 7.334-7.667 6.666-7.333 6.334-7.334 5.666-7 5.334-6.666 9-12.334 7-11L292 582l4-7.667 2.667-5.666 2-4.667v-19.333L313 551.333z"/>
</svg>
