<?xml version="1.0" encoding="UTF-8" standalone="no"?>
<svg
   xmlns:dc="http://purl.org/dc/elements/1.1/"
   xmlns:cc="http://creativecommons.org/ns#"
   xmlns:rdf="http://www.w3.org/1999/02/22-rdf-syntax-ns#"
   xmlns:svg="http://www.w3.org/2000/svg"
   xmlns="http://www.w3.org/2000/svg"
   xmlns:sodipodi="http://sodipodi.sourceforge.net/DTD/sodipodi-0.dtd"
   xmlns:inkscape="http://www.inkscape.org/namespaces/inkscape"
   id="SVGRoot"
   version="1.1"
   viewBox="0 0 42 42"
   height="21"
   width="21"
   inkscape:version="1.0 (4035a4fb49, 2020-05-01)"
   sodipodi:docname="senbun_nyuryoku11.svg">
  <defs
     id="defs1421" />
  <sodipodi:namedview
     scale-x="1"
     id="base"
     pagecolor="#ffffff"
     bordercolor="#666666"
     borderopacity="1.0"
     inkscape:pageopacity="0.0"
     inkscape:pageshadow="2"
     inkscape:zoom="15.839192"
     inkscape:cx="21.315336"
     inkscape:cy="22.633897"
     inkscape:document-units="px"
     inkscape:current-layer="SVGRoot"
     inkscape:document-rotation="0"
     showgrid="true"
     inkscape:window-width="1920"
     inkscape:window-height="1017"
     inkscape:window-x="-8"
     inkscape:window-y="-8"
     inkscape:window-maximized="1"
     inkscape:snap-bbox="true"
     inkscape:bbox-paths="false"
     inkscape:bbox-nodes="false"
     inkscape:snap-bbox-edge-midpoints="true"
     inkscape:snap-bbox-midpoints="true">
    <inkscape:grid
       id="grid1991"
       type="xygrid"
       visible="false"
       snapvisiblegridlinesonly="false"
       dotted="true" />
    <inkscape:grid
       type="xygrid"
       id="grid2014"
       spacingx="2"
       spacingy="2"
       color="#243fff"
       opacity="0.1254902"
       empcolor="#2d3fff"
       empopacity="0.25098039"
       empspacing="4" />
  </sodipodi:namedview>
  <metadata
     id="metadata1424">
    <rdf:RDF>
      <cc:Work
         rdf:about="">
        <dc:format>image/svg+xml</dc:format>
        <dc:type
           rdf:resource="http://purl.org/dc/dcmitype/StillImage" />
        <dc:title></dc:title>
      </cc:Work>
    </rdf:RDF>
    <rdf:RDF>
      <cc:Work
         rdf:about="">
        <dc:title />
      </cc:Work>
    </rdf:RDF>
  </metadata>
  <g
     inkscape:label="shapes"
     inkscape:groupmode="layer"
     id="layer1"
     style="display:none">
    <circle
       style="opacity:0.999;fill:#000000;stroke:#000000;stroke-width:0;paint-order:fill markers stroke;stop-color:#000000"
       id="path2016"
       cx="31"
       cy="31"
       r="4" />
    <circle
       r="4"
       cy="11"
       cx="11"
       id="path2016-3"
       style="opacity:0.999;fill:#000000;stroke:#000000;stroke-width:0;paint-order:fill markers stroke;stop-color:#000000" />
    <rect
       style="opacity:0.999;fill:#000000;stroke:#000000;stroke-width:0;paint-order:fill markers stroke;stop-color:#000000"
       id="rect2033"
       width="32"
       height="2"
       x="13.698484"
       y="-1"
       transform="rotate(45)" />
  </g>
  <g
     inkscape:groupmode="layer"
     id="layer2"
     inkscape:label="Senbun_nyuryoku"
     style="display:none">
    <path
       id="path2016-6"
       style="opacity:0.999;fill:#000000;stroke:#000000;stroke-width:0;paint-order:fill markers stroke;stop-color:#000000"
       d="M 10.939453,7 A 4,4 0 0 0 7,11 a 4,4 0 0 0 4,4 4,4 0 0 0 2.03125,-0.554688 L 27.554688,28.96875 A 4,4 0 0 0 27,31 a 4,4 0 0 0 4,4 4,4 0 0 0 4,-4 4,4 0 0 0 -4,-4 4,4 0 0 0 -2.03125,0.554688 L 14.445312,13.03125 A 4,4 0 0 0 15,11 4,4 0 0 0 11,7 4,4 0 0 0 10.939453,7 Z" />
  </g>
  <g
     inkscape:label="Senbun_nyuryoku11"
     id="g2074"
     inkscape:groupmode="layer"
     style="display:inline">
    <rect
       style="opacity:0.999;fill:#b3b3b3;stroke:#000000;stroke-width:0;paint-order:fill markers stroke;stop-color:#000000"
       id="rect2076"
       width="42"
       height="2"
       x="0"
       y="30" />
    <rect
       style="opacity:0.999;fill:#b3b3b3;stroke:#000000;stroke-width:0;paint-order:fill markers stroke;stop-color:#000000"
       id="rect2078"
       width="2"
       height="42"
       x="30"
       y="0" />
    <rect
       style="opacity:0.999;fill:#b3b3b3;stroke:#000000;stroke-width:0;paint-order:fill markers stroke;stop-color:#000000"
       id="rect2080"
       width="42"
       height="2"
       x="0"
       y="10" />
    <rect
       style="opacity:0.999;fill:#b3b3b3;stroke:#000000;stroke-width:0;paint-order:fill markers stroke;stop-color:#000000"
       id="rect2082"
       width="2"
       height="42"
       x="10"
       y="0" />
    <path
       d="M 10.939453,7 A 4,4 0 0 0 7,11 a 4,4 0 0 0 4,4 4,4 0 0 0 2.03125,-0.554688 L 27.554688,28.96875 A 4,4 0 0 0 27,31 a 4,4 0 0 0 4,4 4,4 0 0 0 4,-4 4,4 0 0 0 -4,-4 4,4 0 0 0 -2.03125,0.554688 L 14.445312,13.03125 A 4,4 0 0 0 15,11 4,4 0 0 0 11,7 4,4 0 0 0 10.939453,7 Z"
       style="opacity:0.999;fill:#000000;stroke:#000000;stroke-width:0;paint-order:fill markers stroke;stop-color:#000000"
       id="path2072" />
  </g>
</svg>
