<?xml version="1.0" encoding="UTF-8" standalone="no"?>
<svg
   xmlns:dc="http://purl.org/dc/elements/1.1/"
   xmlns:cc="http://creativecommons.org/ns#"
   xmlns:rdf="http://www.w3.org/1999/02/22-rdf-syntax-ns#"
   xmlns:svg="http://www.w3.org/2000/svg"
   xmlns="http://www.w3.org/2000/svg"
   xmlns:sodipodi="http://sodipodi.sourceforge.net/DTD/sodipodi-0.dtd"
   xmlns:inkscape="http://www.inkscape.org/namespaces/inkscape"
   id="SVGRoot"
   version="1.1"
   viewBox="0 0 21 21"
   sodipodi:docname="senbun_nyuryoku.svg"
   width="21"
   height="21"
   inkscape:version="1.0.1 (3bc2e813f5, 2020-09-07)">
  <metadata
     id="metadata1172">
    <rdf:RDF>
      <cc:Work
         rdf:about="">
        <dc:format>image/svg+xml</dc:format>
        <dc:type
           rdf:resource="http://purl.org/dc/dcmitype/StillImage" />
        <dc:title></dc:title>
      </cc:Work>
    </rdf:RDF>
  </metadata>
  <defs
     id="defs1170" />
  <sodipodi:namedview
     pagecolor="#ffffff"
     bordercolor="#666666"
     borderopacity="1"
     objecttolerance="10"
     gridtolerance="10"
     guidetolerance="10"
     inkscape:pageopacity="0"
     inkscape:pageshadow="2"
     inkscape:window-width="1920"
     inkscape:window-height="1017"
     id="namedview1168"
     showgrid="false"
     inkscape:zoom="19.690476"
     inkscape:cx="21"
     inkscape:cy="20.373988"
     inkscape:window-x="-8"
     inkscape:window-y="-8"
     inkscape:window-maximized="1"
     inkscape:current-layer="SVGRoot" />
  <g
     display="none"
     stroke-width="0"
     id="g1133">
    <circle
       cx="31"
       cy="31"
       r="4"
       opacity="0.999"
       stop-color="#000000"
       style="paint-order:fill markers stroke"
       id="circle1127" />
    <circle
       cx="11"
       cy="11"
       r="4"
       opacity="0.999"
       stop-color="#000000"
       style="paint-order:fill markers stroke"
       id="circle1129" />
    <rect
       transform="rotate(45)"
       x="13.698"
       y="-1"
       width="32"
       height="2"
       opacity="0.999"
       stop-color="#000000"
       style="paint-order:fill markers stroke"
       id="rect1131" />
  </g>
  <g
     id="g1137"
     transform="matrix(0.5,0,0,0.5,3.7250654e-4,1.511434e-4)"
     style="stroke-width:2">
    <path
       d="m 10.939,7 a 4,4 0 0 0 -3.9395,4 4,4 0 0 0 4,4 4,4 0 0 0 2.0312,-0.55469 l 14.523,14.523 a 4,4 0 0 0 -0.55469,2.0312 4,4 0 0 0 4,4 4,4 0 0 0 4,-4 4,4 0 0 0 -4,-4 4,4 0 0 0 -2.0312,0.55469 l -14.523,-14.523 A 4,4 0 0 0 14.9995,11 a 4,4 0 0 0 -4,-4 4,4 0 0 0 -0.06055,0 z"
       opacity="0.999"
       stop-color="#000000"
       stroke-width="0"
       style="paint-order:fill markers stroke"
       id="path1135" />
  </g>
  <g
     display="none"
     stroke-width="0"
     id="g1151">
    <g
       fill="#b3b3b3"
       id="g1147">
      <rect
         y="30"
         width="42"
         height="2"
         opacity="0.999"
         stop-color="#000000"
         style="paint-order:fill markers stroke"
         id="rect1139"
         x="0" />
      <rect
         x="30"
         width="2"
         height="42"
         opacity="0.999"
         stop-color="#000000"
         style="paint-order:fill markers stroke"
         id="rect1141"
         y="0" />
      <rect
         y="10"
         width="42"
         height="2"
         opacity="0.999"
         stop-color="#000000"
         style="paint-order:fill markers stroke"
         id="rect1143"
         x="0" />
      <rect
         x="10"
         width="2"
         height="42"
         opacity="0.999"
         stop-color="#000000"
         style="paint-order:fill markers stroke"
         id="rect1145"
         y="0" />
    </g>
    <path
       d="m 10.939,7 a 4,4 0 0 0 -3.9395,4 4,4 0 0 0 4,4 4,4 0 0 0 2.0312,-0.55469 l 14.523,14.523 a 4,4 0 0 0 -0.55469,2.0312 4,4 0 0 0 4,4 4,4 0 0 0 4,-4 4,4 0 0 0 -4,-4 4,4 0 0 0 -2.0312,0.55469 l -14.523,-14.523 A 4,4 0 0 0 14.9995,11 a 4,4 0 0 0 -4,-4 4,4 0 0 0 -0.06055,0 z"
       opacity="0.999"
       stop-color="#000000"
       style="paint-order:fill markers stroke"
       id="path1149" />
  </g>
  <g
     display="none"
     id="g1155">
    <path
       d="M 0,34.125 21,22 h 0.0059 l 20.994,12.121 v -2.3105 l -20,-11.547 V -5e-4 h -2 v 20.268 l -20,11.547 z"
       opacity="0.999"
       stop-color="#000000"
       stroke-width="0"
       style="paint-order:fill markers stroke"
       id="path1153" />
  </g>
  <g
     display="none"
     stroke-width="0"
     id="g1165">
    <circle
       cx="35"
       cy="29"
       r="4"
       display="inline"
       opacity="0.999"
       stop-color="#000000"
       style="paint-order:fill markers stroke"
       id="circle1157" />
    <path
       d="M 42,7.875 21,20 H 20.9941 L 1e-4,7.879 v 2.3105 l 20,11.547 v 20.264 h 2 v -20.268 l 20,-11.547 z"
       opacity="0.999"
       stop-color="#000000"
       style="paint-order:fill markers stroke"
       id="path1159" />
    <circle
       cx="7"
       cy="29"
       r="4"
       display="inline"
       opacity="0.999"
       stop-color="#000000"
       style="paint-order:fill markers stroke"
       id="circle1161" />
    <circle
       cx="21"
       cy="7"
       r="4"
       display="inline"
       opacity="0.999"
       stop-color="#000000"
       style="paint-order:fill markers stroke"
       id="circle1163" />
  </g>
</svg>
