<?xml version="1.0" encoding="UTF-8" standalone="no"?>
<svg
   xmlns:dc="http://purl.org/dc/elements/1.1/"
   xmlns:cc="http://creativecommons.org/ns#"
   xmlns:rdf="http://www.w3.org/1999/02/22-rdf-syntax-ns#"
   xmlns:svg="http://www.w3.org/2000/svg"
   xmlns="http://www.w3.org/2000/svg"
   width="21"
   height="21"
   viewBox="0 0 21 21"
   version="1.1"
   id="SVGRoot">
  <defs
     id="defs1421" />
  <metadata
     id="metadata1424">
    <rdf:RDF>
      <cc:Work
         rdf:about="">
        <dc:format>image/svg+xml</dc:format>
        <dc:type
           rdf:resource="http://purl.org/dc/dcmitype/StillImage" />
        <dc:title></dc:title>
      </cc:Work>
    </rdf:RDF>
    <rdf:RDF>
      <cc:Work
         rdf:about="">
        <dc:title />
      </cc:Work>
    </rdf:RDF>
  </metadata>
  <g
     style="display:none"
     id="layer1">
    <circle
       r="4"
       cy="31"
       cx="31"
       id="path2016"
       style="opacity:0.999;fill:#000000;stroke:#000000;stroke-width:0;paint-order:fill markers stroke;stop-color:#000000" />
    <circle
       style="opacity:0.999;fill:#000000;stroke:#000000;stroke-width:0;paint-order:fill markers stroke;stop-color:#000000"
       id="path2016-3"
       cx="11"
       cy="11"
       r="4" />
    <rect
       transform="rotate(45)"
       y="-1"
       x="13.698484"
       height="2"
       width="32"
       id="rect2033"
       style="opacity:0.999;fill:#000000;stroke:#000000;stroke-width:0;paint-order:fill markers stroke;stop-color:#000000" />
  </g>
  <g
     style="display:none"
     id="layer2">
    <path
       d="M 10.939453,7 A 4,4 0 0 0 7,11 a 4,4 0 0 0 4,4 4,4 0 0 0 2.03125,-0.554688 L 27.554688,28.96875 A 4,4 0 0 0 27,31 a 4,4 0 0 0 4,4 4,4 0 0 0 4,-4 4,4 0 0 0 -4,-4 4,4 0 0 0 -2.03125,0.554688 L 14.445312,13.03125 A 4,4 0 0 0 15,11 4,4 0 0 0 11,7 4,4 0 0 0 10.939453,7 Z"
       style="opacity:0.999;fill:#000000;stroke:#000000;stroke-width:0;paint-order:fill markers stroke;stop-color:#000000"
       id="path2016-6" />
  </g>
  <g
     style="display:none"
     id="g2074">
    <rect
       y="30"
       x="0"
       height="2"
       width="42"
       id="rect2076"
       style="opacity:0.999;fill:#b3b3b3;stroke:#000000;stroke-width:0;paint-order:fill markers stroke;stop-color:#000000" />
    <rect
       y="0"
       x="30"
       height="42"
       width="2"
       id="rect2078"
       style="opacity:0.999;fill:#b3b3b3;stroke:#000000;stroke-width:0;paint-order:fill markers stroke;stop-color:#000000" />
    <rect
       y="10"
       x="0"
       height="2"
       width="42"
       id="rect2080"
       style="opacity:0.999;fill:#b3b3b3;stroke:#000000;stroke-width:0;paint-order:fill markers stroke;stop-color:#000000" />
    <rect
       y="0"
       x="10"
       height="42"
       width="2"
       id="rect2082"
       style="opacity:0.999;fill:#b3b3b3;stroke:#000000;stroke-width:0;paint-order:fill markers stroke;stop-color:#000000" />
    <path
       id="path2072"
       style="opacity:0.999;fill:#000000;stroke:#000000;stroke-width:0;paint-order:fill markers stroke;stop-color:#000000"
       d="M 10.939453,7 A 4,4 0 0 0 7,11 a 4,4 0 0 0 4,4 4,4 0 0 0 2.03125,-0.554688 L 27.554688,28.96875 A 4,4 0 0 0 27,31 a 4,4 0 0 0 4,4 4,4 0 0 0 4,-4 4,4 0 0 0 -4,-4 4,4 0 0 0 -2.03125,0.554688 L 14.445312,13.03125 A 4,4 0 0 0 15,11 4,4 0 0 0 11,7 4,4 0 0 0 10.939453,7 Z" />
  </g>
  <g
     style="display:none"
     id="layer5">
    <path
       d="M 0,34.125 20.999999,22 h 0.0059 L 42,34.121094 V 31.810547 L 21.999999,20.263672 V 0 h -2 V 20.267578 L 0,31.814453 Z"
       style="opacity:0.999;fill:#000000;stroke:#000000;stroke-width:0;paint-order:fill markers stroke;stop-color:#000000"
       id="rect2103-4" />
  </g>
  <g
     style="display:inline;stroke-width:2"
     id="layer4"
     transform="matrix(0.5,0,0,0.5,0.08696482,0.1478929)">
    <circle
       style="display:inline;opacity:0.999;fill:#000000;stroke:#000000;stroke-width:0;paint-order:fill markers stroke;stop-color:#000000"
       id="path2016-4"
       cx="35"
       cy="29"
       r="4" />
    <path
       d="M 42,7.875 21,20 H 20.9941 L 0,7.8789062 V 10.189453 L 20,21.736328 V 42 h 2 V 21.732422 L 42,10.185547 Z"
       style="opacity:0.999;fill:#000000;stroke:#000000;stroke-width:0;paint-order:fill markers stroke;stop-color:#000000"
       id="rect2103" />
    <circle
       r="4"
       cy="29"
       cx="7"
       id="path2016-4-3"
       style="display:inline;opacity:0.999;fill:#000000;stroke:#000000;stroke-width:0;paint-order:fill markers stroke;stop-color:#000000" />
    <circle
       style="display:inline;opacity:0.999;fill:#000000;stroke:#000000;stroke-width:0;paint-order:fill markers stroke;stop-color:#000000"
       id="path2016-4-3-7"
       cx="21"
       cy="7"
       r="4" />
  </g>
</svg>
